<?xml version="1.0" standalone="no"?>
<!DOCTYPE svg PUBLIC "-//W3C//DTD SVG 20010904//EN"
 "http://www.w3.org/TR/2001/REC-SVG-20010904/DTD/svg10.dtd">
<svg version="1.0" xmlns="http://www.w3.org/2000/svg"
 width="64.000000pt" height="64.000000pt" viewBox="0 0 64.000000 64.000000"
 preserveAspectRatio="xMidYMid meet">

<g transform="translate(0.000000,64.000000) scale(0.100000,-0.100000)"
fill="#000000" stroke="none">
<path d="M268 629 c-203 -31 -320 -259 -229 -444 94 -191 333 -237 494 -96 20
18 51 61 68 96 76 156 12 339 -144 414 -69 33 -120 41 -189 30z m156 -76 c81
-41 129 -101 148 -185 36 -164 -123 -329 -292 -302 -66 11 -141 62 -176 121
-55 92 -55 174 0 266 32 54 110 111 165 120 42 8 122 -3 155 -20z"/>
<path d="M312 345 c1 -30 5 -35 25 -35 12 0 23 5 23 10 0 6 -7 10 -15 10 -9 0
-15 9 -15 25 0 14 -4 25 -10 25 -5 0 -9 -16 -8 -35z"/>
</g>
</svg>
